<svg width="442" height="94" viewBox="0 0 442 94" fill="none" xmlns="http://www.w3.org/2000/svg">
<g clip-path="url(#clip0_222_854)">
<path d="M70 0H24C10.7452 0 0 10.7452 0 24V70C0 83.2548 10.7452 94 24 94H70C83.2548 94 94 83.2548 94 70V24C94 10.7452 83.2548 0 70 0Z" fill="black"/>
<path d="M75.7863 62.1831C78.5063 64.9031 76.5407 69.5356 72.7476 69.5356H58.2338C56.6932 69.5356 55.2482 68.93 54.1538 67.8462L47.152 60.8444L40.1607 67.8356C39.6082 68.3881 38.9813 68.8025 38.2801 69.1C37.5788 69.3869 36.8457 69.5356 36.0701 69.5356H21.567C20.6957 69.5356 19.867 69.27 19.1657 68.8025C18.4751 68.3456 17.9332 67.6869 17.5932 66.8688C17.2532 66.0506 17.1682 65.2006 17.3276 64.3931C17.4976 63.5644 17.9013 62.7994 18.5176 62.1831L33.5838 47.1063L18.5176 32.04C17.9013 31.4238 17.4976 30.6588 17.3276 29.83C17.1682 29.0225 17.2532 28.1619 17.5932 27.3438C17.9332 26.5363 18.4751 25.8775 19.1657 25.4206C19.867 24.9531 20.6957 24.6875 21.567 24.6875H36.0701C36.8457 24.6875 37.5788 24.8362 38.2801 25.1231C38.9813 25.4206 39.6082 25.835 40.1607 26.3875L47.237 33.4638L54.2282 26.4619H54.2388C55.3438 25.3675 56.7676 24.7725 58.3188 24.7725H72.822C76.6045 24.7725 78.6126 29.3731 75.8713 32.125L64.7788 43.2175C60.9113 47.085 54.6213 47.085 50.7538 43.2175L37.037 29.5006C36.8882 29.3519 36.7501 29.2456 36.6013 29.1925C36.4632 29.1287 36.2826 29.0969 36.0701 29.0969H21.8113L39.8207 47.1063L21.8113 65.1263H36.0701C36.2826 65.1263 36.4632 65.0944 36.612 65.0306C36.7501 64.9775 36.8882 64.8713 37.037 64.7225L44.0388 57.7313L45.6007 56.1694L50.6795 51.0906C54.5363 47.2231 60.8263 47.2231 64.6938 51.0906L75.7863 62.1831Z" fill="white"/>
<path d="M118 9H132.293L164.71 58.6327V9H179.003V83.449H164.71L132.293 33.8163V83.449H118V9Z" fill="black"/>
<path d="M215.305 84.9998C209.644 84.9998 204.603 83.7762 200.184 81.3291C195.8 78.8819 192.365 75.4696 189.879 71.0923C187.428 66.715 186.202 61.769 186.202 56.2542C186.202 50.2569 187.393 44.9835 189.775 40.4338C192.192 35.8497 195.541 32.3168 199.822 29.8352C204.103 27.3191 208.988 26.061 214.477 26.061C220.277 26.061 225.248 27.4397 229.391 30.1971C233.534 32.92 236.572 36.8148 238.505 41.8814C240.473 46.9136 241.181 52.773 240.628 59.4597H226.698V54.2896C226.698 50.4637 226.301 47.3962 225.507 45.0869C224.713 42.7431 223.47 41.0198 221.778 39.9168C220.087 38.8139 217.86 38.2624 215.098 38.2624C211.922 38.2624 209.298 38.9173 207.227 40.227C205.156 41.5023 203.619 43.4152 202.618 45.9658C201.617 48.5164 201.116 51.7046 201.116 55.5304C201.116 59.0116 201.617 61.9758 202.618 64.4229C203.619 66.8356 205.121 68.6796 207.123 69.9549C209.126 71.2302 211.577 71.8678 214.477 71.8678C217.204 71.8678 219.552 71.2647 221.52 70.0583C223.522 68.852 225.041 67.1114 226.077 64.8365L240.162 68.8692C238.781 72.2125 236.831 75.1077 234.31 77.5549C231.79 79.9676 228.89 81.8116 225.611 83.0869C222.331 84.3622 218.896 84.9998 215.305 84.9998ZM196.766 49.0161H233.844V59.4597H196.766V49.0161Z" fill="black"/>
<path d="M248.178 27.6124H260.607V41.2614L259.26 39.5036C260.02 37.5045 261.004 35.7295 262.212 34.1784C263.455 32.5929 264.922 31.3004 266.614 30.3009C267.925 29.4737 269.375 28.836 270.964 28.388C272.552 27.9054 274.191 27.6124 275.883 27.509C277.575 27.3712 279.284 27.4056 281.01 27.6124V40.7444C279.422 40.2619 277.592 40.1068 275.521 40.2791C273.484 40.4514 271.654 40.9168 270.031 41.675C268.374 42.4333 266.976 43.4501 265.837 44.7254C264.698 45.9662 263.834 47.4483 263.248 49.1716C262.661 50.8605 262.367 52.7734 262.367 54.9104V83.4492H248.178V27.6124Z" fill="black"/>
<path d="M310.873 84.9998C305.315 84.9998 300.396 83.759 296.115 81.2773C291.834 78.7613 288.502 75.2801 286.12 70.8338C283.773 66.3531 282.599 61.252 282.599 55.5304C282.599 49.7744 283.79 44.6733 286.172 40.227C288.589 35.7463 291.937 32.2651 296.218 29.7835C300.534 27.3018 305.419 26.061 310.873 26.061C316.432 26.061 321.351 27.3191 325.632 29.8352C329.948 32.3168 333.296 35.798 335.678 40.2787C338.061 44.7594 339.252 49.8433 339.252 55.5304C339.252 61.252 338.043 66.3531 335.627 70.8338C333.245 75.2801 329.896 78.7613 325.58 81.2773C321.3 83.759 316.397 84.9998 310.873 84.9998ZM310.873 71.8678C313.808 71.8678 316.276 71.1957 318.279 69.8515C320.316 68.4728 321.835 66.5599 322.836 64.1127C323.837 61.6311 324.338 58.7703 324.338 55.5304C324.338 50.4637 323.181 46.4828 320.868 43.5876C318.555 40.6578 315.223 39.193 310.873 39.193C307.87 39.193 305.367 39.8651 303.365 41.2093C301.397 42.5535 299.93 44.4492 298.963 46.8964C297.996 49.3436 297.513 52.2216 297.513 55.5304C297.513 58.9082 298.014 61.8207 299.015 64.2678C300.05 66.715 301.552 68.5935 303.52 69.9032C305.522 71.213 307.974 71.8678 310.873 71.8678Z" fill="black"/>
<path d="M345.461 45.3975H376.532V56.2546H345.461V45.3975Z" fill="black"/>
<path d="M399.536 45.8109L375.198 9H392.494L408.34 33.8163L423.979 9H441.379L417.04 45.8109L442 83.449H424.704L408.34 57.8054L391.872 83.449H374.473L399.536 45.8109Z" fill="black"/>
</g>
<defs>
<clipPath id="clip0_222_854">
<rect width="442" height="94" fill="white"/>
</clipPath>
</defs>
</svg>
