<svg width="81" height="28" viewBox="0 0 81 28" fill="none" xmlns="http://www.w3.org/2000/svg">
<g clip-path="url(#clip0_22594_41548)">
<rect width="28" height="28" rx="14" fill="#902BD4"/>
<g clip-path="url(#clip1_22594_41548)">
<path d="M0.538574 22.6212H32.2497L28.1997 18.8514L24.0184 3.77197L16.3171 8.95552L6.80378 3.77197L3.63267 18.3801L0.538574 22.6212Z" fill="#280A46"/>
<path d="M4.01744 22.627L1.82031 28.2817H29.2368L27.2934 22.627H4.01744Z" fill="#280A46"/>
<path d="M15.275 22.1545C15.275 24.1808 13.6985 25.8207 11.7505 25.8207C9.80257 25.8207 8.22607 24.1808 8.22607 22.1545" fill="white"/>
<path d="M24.7887 22.1545C24.7887 24.1808 23.2122 25.8207 21.2642 25.8207C19.3162 25.8207 17.7397 24.1808 17.7397 22.1545" fill="white"/>
<path d="M12.6104 24.5076C13.6112 24.5076 14.4225 23.6637 14.4225 22.6227C14.4225 21.5817 13.6112 20.7378 12.6104 20.7378C11.6096 20.7378 10.7983 21.5817 10.7983 22.6227C10.7983 23.6637 11.6096 24.5076 12.6104 24.5076Z" fill="#280A46"/>
<path d="M21.9371 24.5076C22.9378 24.5076 23.7491 23.6637 23.7491 22.6227C23.7491 21.5817 22.9378 20.7378 21.9371 20.7378C20.9363 20.7378 20.125 21.5817 20.125 22.6227C20.125 23.6637 20.9363 24.5076 21.9371 24.5076Z" fill="#280A46"/>
</g>
</g>
<path d="M29.7407 24.9352L33.1932 3.05957H44.1891L43.3767 8.22383H38.2995L37.8353 11.2702H42.3903L41.5489 16.4344H36.9939L36.4717 19.7709H41.5489L40.7365 24.9352H29.7407Z" fill="#902BD4"/>
<path d="M53.1257 24.9352H42.7681L46.2206 3.05957H52.1392L49.4991 19.7709H53.938L53.1257 24.9352Z" fill="#902BD4"/>
<path d="M60.0141 24.9352H54.0955L57.5481 3.05957H67.9926L67.1803 8.22383H62.6543L62.1611 11.3862H66.3969L65.5846 16.5505H61.3487L60.0141 24.9352Z" fill="#902BD4"/>
<path d="M80.6352 24.9352H74.5135V22.1209H70.5387L69.6103 24.9352H63.5177L72.2215 3.05957H79.4456L80.6352 24.9352ZM72.0764 17.4789H74.5715L74.7166 12.4017C74.7359 11.9955 74.7552 11.5603 74.7746 11.0961C74.8133 10.6319 74.8423 10.129 74.8616 9.58743C74.9003 9.02652 74.9293 8.59133 74.9487 8.28186H74.8906C74.2137 10.6416 73.8075 12.0148 73.6721 12.4017L72.0764 17.4789Z" fill="#902BD4"/>
<defs>
<clipPath id="clip0_22594_41548">
<rect width="28" height="28" rx="14" fill="white"/>
</clipPath>
<clipPath id="clip1_22594_41548">
<rect width="31.7111" height="24.504" fill="white" transform="translate(0.538574 3.77173)"/>
</clipPath>
</defs>
</svg>
